<!DOCTYPE svg PUBLIC "-//W3C//DTD SVG 1.1//EN" "http://www.w3.org/Graphics/SVG/1.1/DTD/svg11.dtd">
<!-- Uploaded to: SVG Repo, www.svgrepo.com, Transformed by: SVG Repo Mixer Tools -->
<svg fill="#eee" height="800px" width="800px" version="1.1" id="Layer_1" xmlns="http://www.w3.org/2000/svg" xmlns:xlink="http://www.w3.org/1999/xlink" viewBox="0 0 512.05 512.05" xml:space="preserve" stroke="#eee">
<g id="SVGRepo_bgCarrier" stroke-width="0"/>
<g id="SVGRepo_tracerCarrier" stroke-linecap="round" stroke-linejoin="round" stroke="#CCCCCC" stroke-width="5.1204600000000005"/>
<g id="SVGRepo_iconCarrier"> <g transform="translate(-1)"> <g> <g> <path d="M449.094,374.015c-7.796-9.842-18.34-19.755-31.036-29.794c-8.841-6.991-18.232-13.648-27.614-19.787 c-5.645-3.694-10.085-6.426-12.74-7.983c-23.077-13.134-49.907-11.395-63.826,10.926c-2.522,3.002-5.988,7.057-9.541,11.078 c-0.515,0.582-0.515,0.582-1.029,1.161c-3.802,4.27-7.397,7.981-7.043,7.742c-13.725,9.291-22.037,8.61-34.128-3.493 l-46.497-46.476l-46.457-46.478c-12.115-12.102-12.796-20.415-3.502-34.143c-0.245,0.362,3.463-3.227,7.728-7.021 c0.58-0.515,0.58-0.515,1.164-1.031c4.025-3.553,8.085-7.02,11.088-9.539c22.316-13.939,24.061-40.761,11.06-63.607 c-1.696-2.896-4.429-7.336-8.125-12.981c-6.142-9.384-12.8-18.775-19.791-27.617c-10.011-12.661-19.896-23.182-29.707-30.973 c-4.384-3.481-8.752-6.412-13.156-8.747c-20.651-10.914-45.979-7.101-62.475,9.395L42.93,85.159 c-45.28,45.303-53.035,98.578-27.336,153.631c8.966,19.204,21.916,36.95,38.271,53.355l166.014,166.569 c13.432,13.457,27.506,24.429,42.627,32.75c59.052,32.488,116.663,27.342,165.36-21.355l20.53-20.552 c16.489-16.489,20.305-41.824,9.393-62.435C455.47,382.739,452.555,378.384,449.094,374.015z M418.219,419.396l-20.53,20.552 c-34.58,34.58-71.464,37.874-114.613,14.135c-11.339-6.24-22.26-14.754-32.981-25.494L84.083,262.024 c-13.041-13.082-23.091-26.854-29.828-41.283c-18.314-39.233-13.372-73.178,18.841-105.408l20.532-20.511 c3.265-3.265,8.273-4.019,12.352-1.864c1.906,1.01,4.135,2.506,6.583,4.451c6.832,5.425,14.623,13.718,22.771,24.023 c6.125,7.747,12.069,16.13,17.56,24.52c3.285,5.019,5.658,8.873,6.88,10.958c2.884,5.073,2.781,6.364,3.04,6.218l-3.197,2.203 c-0.851,0.709-2.305,1.93-4.165,3.51c-3.1,2.633-6.203,5.311-9.12,7.886c-0.642,0.568-0.642,0.568-1.285,1.139 c-7.733,6.879-12.033,11.041-14.699,14.978c-20.632,30.476-18.089,61.513,8.667,88.24l46.452,46.474l46.492,46.471 c26.715,26.744,57.752,29.287,88.225,8.658c3.937-2.667,8.102-6.966,14.986-14.698c0.57-0.641,0.57-0.641,1.137-1.281 c2.577-2.917,5.257-6.019,7.893-9.119c1.581-1.859,2.804-3.313,3.514-4.165l2.223-3.229c-0.159,0.284,1.117,0.181,6.425,3.202 c1.846,1.084,5.7,3.456,10.717,6.739c8.388,5.489,16.769,11.43,24.514,17.554c10.328,8.166,18.634,15.976,24.055,22.82 c1.929,2.435,3.413,4.652,4.429,6.572C422.227,411.14,421.474,416.141,418.219,419.396z"/> <path d="M438.003,155.953h-8.085v-56.64c0-3.499-2.24-6.571-5.547-7.68c-3.307-1.088-6.933,0.043-9.024,2.816l-48.555,64.747 c-1.835,2.453-2.133,5.717-0.768,8.469c1.365,2.731,4.181,4.48,7.232,4.48h40.469v24.277c0,4.459,3.627,8.085,8.085,8.085 c4.48,0,8.107-3.627,8.107-8.085v-24.277h8.085c4.48,0,8.085-3.627,8.085-8.107C446.089,159.58,442.483,155.953,438.003,155.953z M413.726,155.953h-24.277l24.277-32.363V155.953z"/> <path d="M357.082,188.314h-51.051l42.645-36.779c10.112-10.133,13.141-25.344,7.723-38.784 c-5.291-13.056-17.173-21.312-31.68-21.525c-22.315,0-40.469,18.155-40.469,40.448c0,4.48,3.627,8.107,8.107,8.107 c4.459,0,8.085-3.627,8.085-8.107c0-13.376,10.88-24.277,24.661-24.277h0.021c7.339,0.128,13.419,4.395,16.277,11.435 c2.368,5.867,2.517,14.549-3.733,20.864l-48.875,42.133c-4.139,3.541-5.568,9.152-3.691,14.251 c1.899,5.12,6.656,8.427,12.117,8.427h59.861c4.459,0,8.085-3.627,8.085-8.085C365.167,191.94,361.54,188.314,357.082,188.314z"/> <path d="M362.229,0c-83.084,0-147.861,65.828-147.861,149.333c0,25.505,3.35,46.348,11.797,64.903l-11.41,59.05 c-3.007,15.561,11.404,28.852,26.671,24.598l52.109-14.518c20.549,10.191,44.798,15.3,70.166,15.3 c83.291,0,149.333-66.042,149.333-149.333C513.035,66.246,445.731,0,362.229,0z M363.701,256 c-21.608,0-41.538-4.813-56.665-13.826c-5.011-2.986-11.026-3.789-16.645-2.224l-27.204,7.579l6.238-32.282 c0.94-4.866,0.157-9.908-2.216-14.26c-7.136-13.088-10.175-29.319-10.175-51.654c0-60.093,45.83-106.667,105.195-106.667 c60.087,0,108.139,47.296,108.139,106.667C470.368,209.061,423.429,256,363.701,256z"/> </g> </g> </g> </g>
</svg>